<svg width="28" height="26" viewBox="0 0 28 26" fill="none" xmlns="http://www.w3.org/2000/svg">
<path d="M11.5 5.56975H16.5C16.5 4.95407 16.2366 4.36361 15.7678 3.92826C15.2989 3.4929 14.663 3.24833 14 3.24833C13.337 3.24833 12.7011 3.4929 12.2322 3.92826C11.7634 4.36361 11.5 4.95407 11.5 5.56975ZM10 5.56975C10 4.58466 10.4214 3.63992 11.1716 2.94336C11.9217 2.24679 12.9391 1.85547 14 1.85547C15.0609 1.85547 16.0783 2.24679 16.8284 2.94336C17.5786 3.63992 18 4.58466 18 5.56975H24.25C24.4489 5.56975 24.6397 5.64313 24.7803 5.77373C24.921 5.90434 25 6.08148 25 6.26618C25 6.45089 24.921 6.62803 24.7803 6.75863C24.6397 6.88924 24.4489 6.96261 24.25 6.96261H22.94L21.723 20.5225C21.6345 21.509 21.1499 22.4285 20.3655 23.0988C19.5811 23.7691 18.554 24.1411 17.488 24.1412H10.512C9.44599 24.1411 8.41894 23.7691 7.6345 23.0988C6.85007 22.4285 6.36554 21.509 6.277 20.5225L5.06 6.96261H3.75C3.55109 6.96261 3.36032 6.88924 3.21967 6.75863C3.07902 6.62803 3 6.45089 3 6.26618C3 6.08148 3.07902 5.90434 3.21967 5.77373C3.36032 5.64313 3.55109 5.56975 3.75 5.56975H10ZM12.5 10.909C12.5 10.7243 12.421 10.5472 12.2803 10.4166C12.1397 10.286 11.9489 10.2126 11.75 10.2126C11.5511 10.2126 11.3603 10.286 11.2197 10.4166C11.079 10.5472 11 10.7243 11 10.909V18.8019C11 18.9866 11.079 19.1637 11.2197 19.2943C11.3603 19.425 11.5511 19.4983 11.75 19.4983C11.9489 19.4983 12.1397 19.425 12.2803 19.2943C12.421 19.1637 12.5 18.9866 12.5 18.8019V10.909ZM16.25 10.2126C16.0511 10.2126 15.8603 10.286 15.7197 10.4166C15.579 10.5472 15.5 10.7243 15.5 10.909V18.8019C15.5 18.9866 15.579 19.1637 15.7197 19.2943C15.8603 19.425 16.0511 19.4983 16.25 19.4983C16.4489 19.4983 16.6397 19.425 16.7803 19.2943C16.921 19.1637 17 18.9866 17 18.8019V10.909C17 10.7243 16.921 10.5472 16.7803 10.4166C16.6397 10.286 16.4489 10.2126 16.25 10.2126Z" fill="#8B8B8B"/>
</svg>
